<svg width="100" height="100" viewBox="0 0 100 100" fill="none" xmlns="http://www.w3.org/2000/svg">
<path fill-rule="evenodd" clip-rule="evenodd" d="M50 24.0139C44.2776 16.9352 35.5718 13.8285 27.5307 14.9872C22.4318 15.7219 17.5723 18.1797 13.9989 22.4277C10.4136 26.6899 8.33331 32.4994 8.33331 39.583C8.33331 54.028 19.0068 66.5668 28.4818 74.9892C33.3528 79.3192 38.2045 82.8214 41.8293 85.238C43.6458 86.449 45.1643 87.3941 46.2365 88.0409C46.7729 88.3645 47.1983 88.6138 47.4943 88.7848C47.6423 88.8703 47.758 88.9363 47.8391 88.9822C47.8609 88.9946 47.8803 89.0055 47.8971 89.015C47.9114 89.0231 47.9239 89.0301 47.9346 89.036L47.9623 89.0516L47.9711 89.0564L47.9742 89.0582C47.9754 89.0588 47.9764 89.0594 50 85.4171L47.9764 89.0594C49.2349 89.7586 50.7651 89.7586 52.0236 89.0594L50 85.4171C52.0236 89.0594 52.0246 89.0588 52.0258 89.0582L52.0289 89.0564L52.0377 89.0516L52.0654 89.036C52.0884 89.0231 52.1203 89.0052 52.1609 88.9822C52.242 88.9363 52.3577 88.8703 52.5057 88.7848C52.8016 88.6138 53.2271 88.3645 53.7634 88.0409C54.8357 87.3941 56.3542 86.449 58.1707 85.238C61.7954 82.8214 66.6471 79.3192 71.5182 74.9892C80.9931 66.5668 91.6666 54.028 91.6666 39.583C91.6666 32.4994 89.5864 26.6899 86.001 22.4277C82.4276 18.1797 77.5681 15.7219 72.4693 14.9872C64.4282 13.8285 55.7224 16.9352 50 24.0139ZM50 80.5764C49.0698 80.0064 47.8597 79.2429 46.4519 78.3043C43.0454 76.0333 38.5221 72.7645 34.0182 68.7609C24.7431 60.5162 16.6666 50.138 16.6666 39.583C16.6666 34.1665 18.2322 30.3406 20.376 27.7921C22.5318 25.2294 25.4848 23.7014 28.7193 23.2353C35.2275 22.2975 42.7581 25.6921 46.1667 33.6928C46.8213 35.2292 48.33 36.2263 50 36.2263C51.67 36.2263 53.1787 35.2292 53.8333 33.6928C57.2419 25.6921 64.7725 22.2975 71.2807 23.2353C74.5151 23.7014 77.4682 25.2294 79.6239 27.7921C81.7677 30.3406 83.3333 34.1665 83.3333 39.583C83.3333 50.138 75.2568 60.5162 65.9818 68.7609C61.4778 72.7645 56.9545 76.0333 53.548 78.3043C52.1402 79.2429 50.9301 80.0064 50 80.5764Z" fill="white"/>
</svg>
